<svg width="73" height="27" viewBox="0 0 73 27" fill="none" xmlns="http://www.w3.org/2000/svg"><path fill-rule="evenodd" clip-rule="evenodd" d="M34.05 5.67h3.8s3.74-.09 3.7 3.8c-.04 2.9-3.63 3.34-3.63 3.34h-3.87V5.67Zm11.33 13.98c.11.56.47 1.19 1.66 1.25 1.6.04 2.5-.65 2.5-.65v1.34s-1.74.48-2.57.48c-.87 0-3.45-.22-3.45-2.95 0-2.2 2.12-2.9 3.33-2.9 2.12.09 3.15.96 3.1 3.42 0 .04-3.48.01-4.57 0Zm0-1.09h2.9s0-1.25-1.4-1.25c-1.05 0-1.39.65-1.5 1.25Zm9.2-1.35c.41-.52 1.12-.94 2.3-.94 2.35 0 2.73 2.25 2.69 2.86-.04.6-.23 2.9-2.95 2.9-1.03 0-1.66-.4-2.05-.9v.72h-1.85v-7.79h1.85v3.15Zm1.58 3.6c1.1-.04 1.6-1.12 1.6-1.64 0-.51-.27-1.6-1.67-1.6-1.09 0-1.42.94-1.52 1.4v.56c.1.47.43 1.28 1.6 1.28Zm16.02-.21.04 1.2s-.87.23-1.44.23-2.04-.4-2.04-2.04v-2.5h-1.56v-1.13h1.56V15h1.9v1.35h1.55v1.12h-1.56v2.17s0 1.08.76 1.08c.75 0 .8-.13.8-.13ZM66.43 6.84h2.2v6.01h1.85V6.84h2.24V5.58h-6.29v1.26Zm-.76.3.23-1.25s-.95-.48-2.62-.48c-1.62 0-4.24 1.04-4.24 3.85 0 2.77 2.77 3.72 4.47 3.72 1.7 0 2.27-.3 2.27-.3l-.19-1.39s-.75.26-2.04.26c-1.25-.04-2.54-1.16-2.54-2.42.04-1.12 1.18-2.38 2.65-2.38 1.14 0 2 .39 2 .39ZM48.93 5.62s3.1-.17 3.1 1.9c0 1.78-1.77 1.91-1.77 1.91s.49.09.72.48c.19.34 1.43 2.94 1.43 2.94h-1.89s-.3-.43-.45-.74c-.12-.3-.46-.95-.46-.95s-.26-1.08-1.17-1.08l-.68-.03v2.8h-1.82V5.61h3Zm-1.17 3.25h.99s1.36-.08 1.43-1.04c.04-.9-1.32-1.04-1.32-1.04h-1.1v2.08ZM55.37 10h3.03V8.65h-3.03V7.01h3.3V5.62H53.5v7.23h5.2v-1.3h-3.34V10Zm7.38 5.53h1.86v-1.47h-1.86v1.47Zm0 6.32h1.86v-5.5h-1.86v5.5Zm-20.21-9h1.82V5.62h-1.82v7.23Zm-8.49 1.82h3.8s3.74-.09 3.7 3.8c-.04 2.9-3.63 3.34-3.63 3.34h-3.87v-7.14Zm1.86 5.8h1.21s2.5-.17 2.5-2.38c0-2.2-2.65-2.42-2.65-2.42h-1.06v4.8Zm0-9h1.21s2.5-.22 2.5-2.38c0-2.25-2.65-2.42-2.65-2.42h-1.06v4.8ZM17.34 9.97v14.48S10 22.93 10 17.18c0-4.6 5.43-6.61 7.34-7.21Zm0-.27c-4.41-.36-14.42 2-14.42 7.18 0 3.37 5.3 8.3 13.93 8.43.34 0 10.15-.43 10-12.46C26.72 2.75 20.1.98 17.99.67V.05c8.43.61 15.06 6.41 15.06 13.45 0 7.44-7.42 13.5-16.54 13.5S0 20.94 0 13.5 7.39 0 16.5 0c.28 0 .56 0 .84.02V9.7Z" fill="#000"/></svg>