<?xml version="1.0" encoding="utf-8"?>
<!-- Generator: Adobe Illustrator 24.0.2, SVG Export Plug-In . SVG Version: 6.00 Build 0)  -->
<svg version="1.1" id="Layer_1" xmlns="http://www.w3.org/2000/svg" xmlns:xlink="http://www.w3.org/1999/xlink" x="0px" y="0px"
	 width="20px" height="20px" viewBox="0 0 20 20" style="enable-background:new 0 0 20 20;" xml:space="preserve">
<path d="M7.01,19.26c-0.17-0.1-0.54-0.22-0.78-0.46c-1.96-1.98-3.89-3.99-5.83-5.99c-0.53-0.56-0.53-1.31-0.03-1.86
	c0.49-0.55,1.22-0.61,1.86-0.16c1.41,1,2.81,2.01,4.21,3.01c0.55,0.39,0.74,0.36,1.16-0.16c3.31-4.08,6.62-8.17,9.92-12.25
	c0.38-0.47,0.84-0.74,1.46-0.59c0.55,0.13,0.99,0.49,1.02,1.04c0.02,0.42-0.11,0.93-0.36,1.27c-2.45,3.43-4.94,6.83-7.42,10.23
	c-1.26,1.73-2.52,3.45-3.77,5.18C8.14,18.95,7.75,19.22,7.01,19.26z"/>
</svg>
