<?xml version="1.0" encoding="utf-8"?>
<!-- Generator: Adobe Illustrator 26.0.1, SVG Export Plug-In . SVG Version: 6.00 Build 0)  -->
<svg version="1.1" id="Layer_1" xmlns="http://www.w3.org/2000/svg" xmlns:xlink="http://www.w3.org/1999/xlink" x="0px" y="0px"
	 width="20px" height="20px" viewBox="0 0 20 20" style="enable-background:new 0 0 20 20;" xml:space="preserve">
<style type="text/css">
	.st0{fill-rule:evenodd;clip-rule:evenodd;fill:#FFFFFF;}
</style>
<path class="st0" d="M4.52,19.69c0,0.21-0.06,0.29-0.28,0.29c-1.21-0.01-2.43-0.01-3.64,0c-0.24,0-0.28-0.1-0.28-0.31
	c0-2.13,0-4.25,0-6.38c0-2.11,0-4.23,0-6.35c0-0.25,0.06-0.33,0.32-0.32c1.2,0.01,2.39,0.01,3.59,0c0.22,0,0.31,0.06,0.31,0.29
	C4.52,11.17,4.52,15.43,4.52,19.69z M7.03,6.98c0-0.33,0-0.35,0.35-0.35c1.13,0,2.25,0.01,3.38,0c0.24,0,0.32,0.07,0.31,0.31
	c-0.01,0.47,0,0.96,0,1.43c0.46-0.64,1-1.17,1.68-1.54c0.81-0.43,1.67-0.61,2.59-0.51c0.54,0.07,1.08,0.1,1.61,0.24
	c1.51,0.43,2.36,1.5,2.71,2.97c0.19,0.82,0.31,1.68,0.32,2.52c0.04,2.53,0.01,5.06,0.03,7.6c0,0.28-0.08,0.33-0.35,0.33
	c-1.17-0.01-2.33-0.01-3.52,0c-0.26,0-0.35-0.08-0.35-0.35c0.01-2.18,0.01-4.38,0-6.56c0-0.54-0.06-1.11-0.17-1.64
	c-0.22-0.96-0.83-1.43-1.82-1.45c-0.31,0-0.61,0.01-0.9,0.08c-0.96,0.24-1.38,0.96-1.53,1.86c-0.08,0.43-0.11,0.88-0.11,1.32
	c-0.01,2.13,0,4.25,0,6.38c0,0.33,0,0.35-0.35,0.35c-1.17,0-2.33,0-3.52,0c-0.26,0-0.35-0.07-0.35-0.33
	C7.03,15.41,7.03,11.19,7.03,6.98z M2.42,0.01c1.33,0,2.42,1.08,2.42,2.43c0,1.33-1.07,2.39-2.42,2.39C1.07,4.85,0,3.78,0,2.45
	C0,1.08,1.07,0.01,2.42,0.01z"/>
</svg>
