<svg xmlns="http://www.w3.org/2000/svg" xmlns:xlink="http://www.w3.org/1999/xlink" width="500" zoomAndPan="magnify" viewBox="0 0 375 374.999991" height="500" preserveAspectRatio="xMidYMid meet" version="1.0"><defs><g/><clipPath id="9b19fee326"><path d="M 101.109375 84.382812 L 236 84.382812 L 236 193.132812 L 101.109375 193.132812 Z M 101.109375 84.382812 " clip-rule="nonzero"/></clipPath><clipPath id="b8c846ae09"><path d="M 139 84.382812 L 273.609375 84.382812 L 273.609375 193.132812 L 139 193.132812 Z M 139 84.382812 " clip-rule="nonzero"/></clipPath></defs><rect x="-37.5" width="450" fill="#ffffff" y="-37.499999" height="449.999989" fill-opacity="1"/><rect x="-37.5" width="450" fill="#ffffff" y="-37.499999" height="449.999989" fill-opacity="1"/><rect x="-37.5" width="450" fill="#000000" y="-37.499999" height="449.999989" fill-opacity="1"/><g clip-path="url(#9b19fee326)"><path fill="#0097b2" d="M 101.113281 84.429688 L 109.09375 87.199219 L 143.710938 99.222656 L 154.742188 103.050781 L 148.363281 106.761719 L 141.628906 110.675781 L 168.21875 154.441406 L 172.972656 146.613281 L 189.761719 118.980469 L 194.804688 110.675781 L 191.4375 108.71875 L 181.691406 103.046875 L 193.605469 98.914062 L 227.34375 87.199219 L 235.324219 84.429688 L 228.285156 95.824219 L 227.34375 97.351562 L 220.652344 108.183594 L 201.773438 138.757812 L 184.949219 166.003906 L 172.921875 185.476562 L 168.214844 193.097656 L 163.507812 185.476562 L 109.09375 97.351562 L 101.113281 84.429688 " fill-opacity="1" fill-rule="nonzero"/></g><path fill="#004aad" d="M 184.949219 166.003906 L 172.972656 146.613281 L 189.761719 118.980469 L 201.773438 138.757812 L 184.949219 166.003906 " fill-opacity="1" fill-rule="nonzero"/><g clip-path="url(#b8c846ae09)"><path fill="#ffff00" d="M 273.605469 84.429688 L 265.628906 97.351562 L 211.210938 185.476562 L 206.5 193.097656 L 201.792969 185.476562 L 147.378906 97.351562 L 139.398438 84.429688 L 147.378906 87.199219 L 193.027344 103.050781 L 179.914062 110.675781 L 206.503906 154.441406 L 233.089844 110.675781 L 219.980469 103.046875 L 265.628906 87.199219 L 273.605469 84.429688 " fill-opacity="1" fill-rule="nonzero"/></g><g fill="#ffffff" fill-opacity="1"><g transform="translate(32.881114, 240.766333)"><g><path d="M 17.015625 -22.65625 C 19.992188 -22.257812 22.585938 -21.71875 24.796875 -21.03125 C 27.015625 -20.34375 28.890625 -19.191406 30.421875 -17.578125 C 31.960938 -15.972656 32.734375 -13.765625 32.734375 -10.953125 C 32.734375 -8.554688 32.164062 -6.414062 31.03125 -4.53125 C 29.894531 -2.65625 28.117188 -1.171875 25.703125 -0.078125 C 23.296875 1.015625 20.257812 1.5625 16.59375 1.5625 C 13.476562 1.5625 10.582031 1.046875 7.90625 0.015625 C 5.226562 -1.003906 3.015625 -2.265625 1.265625 -3.765625 L 5.0625 -11.890625 C 6.78125 -10.554688 8.675781 -9.554688 10.75 -8.890625 C 12.832031 -8.234375 14.78125 -7.875 16.59375 -7.8125 C 18.300781 -7.75 19.710938 -7.875 20.828125 -8.1875 C 21.953125 -8.5 22.515625 -9.097656 22.515625 -9.984375 C 22.515625 -10.472656 22.304688 -10.863281 21.890625 -11.15625 C 21.472656 -11.445312 20.847656 -11.6875 20.015625 -11.875 C 19.179688 -12.0625 17.847656 -12.304688 16.015625 -12.609375 C 11.234375 -13.359375 7.722656 -14.707031 5.484375 -16.65625 C 3.253906 -18.601562 2.140625 -21.140625 2.140625 -24.265625 C 2.140625 -26.429688 2.703125 -28.390625 3.828125 -30.140625 C 4.953125 -31.890625 6.664062 -33.28125 8.96875 -34.3125 C 11.28125 -35.351562 14.132812 -35.875 17.53125 -35.875 C 20.019531 -35.8125 22.5 -35.429688 24.96875 -34.734375 C 27.4375 -34.046875 29.460938 -33.007812 31.046875 -31.625 L 27 -23.984375 C 25.976562 -24.691406 24.566406 -25.289062 22.765625 -25.78125 C 20.960938 -26.269531 18.90625 -26.515625 16.59375 -26.515625 C 15.007812 -26.515625 13.898438 -26.359375 13.265625 -26.046875 C 12.628906 -25.742188 12.3125 -25.335938 12.3125 -24.828125 C 12.3125 -24.410156 12.441406 -24.070312 12.703125 -23.8125 C 12.960938 -23.5625 13.429688 -23.34375 14.109375 -23.15625 C 14.796875 -22.96875 15.765625 -22.800781 17.015625 -22.65625 Z M 17.015625 -22.65625 "/></g></g></g><g fill="#ffffff" fill-opacity="1"><g transform="translate(58.93141, 240.766333)"><g><path d="M 30.203125 -25.671875 L 20.84375 -25.671875 L 20.84375 0.6875 L 10.625 0.6875 L 10.625 -25.671875 L 1.265625 -25.671875 L 1.265625 -35.03125 L 30.203125 -35.03125 Z M 30.203125 -25.671875 "/></g></g></g><g fill="#ffffff" fill-opacity="1"><g transform="translate(82.421926, 240.766333)"><g><path d="M 15.140625 -10.375 L 13.1875 -10.375 L 13.1875 0.6875 L 2.984375 0.6875 L 2.984375 -35.03125 L 19.125 -35.03125 C 22.144531 -35.03125 24.671875 -34.523438 26.703125 -33.515625 C 28.734375 -32.515625 30.242188 -31.117188 31.234375 -29.328125 C 32.234375 -27.535156 32.734375 -25.460938 32.734375 -23.109375 C 32.734375 -20.429688 32.109375 -18.023438 30.859375 -15.890625 C 29.617188 -13.765625 27.890625 -12.238281 25.671875 -11.3125 L 34.453125 0.6875 L 22.515625 0.6875 Z M 18.1875 -18.859375 C 19.457031 -18.859375 20.492188 -19.175781 21.296875 -19.8125 C 22.109375 -20.445312 22.515625 -21.40625 22.515625 -22.6875 C 22.515625 -23.9375 22.109375 -24.882812 21.296875 -25.53125 C 20.492188 -26.1875 19.457031 -26.515625 18.1875 -26.515625 L 13.1875 -26.515625 L 13.1875 -18.859375 Z M 18.1875 -18.859375 "/></g></g></g><g fill="#ffffff" fill-opacity="1"><g transform="translate(110.157144, 240.766333)"><g><path d="M 20.84375 -35.875 C 24.382812 -35.875 27.648438 -35.035156 30.640625 -33.359375 C 33.628906 -31.679688 36 -29.40625 37.75 -26.53125 C 39.5 -23.664062 40.375 -20.546875 40.375 -17.171875 C 40.375 -13.804688 39.5 -10.6875 37.75 -7.8125 C 36 -4.9375 33.628906 -2.65625 30.640625 -0.96875 C 27.648438 0.71875 24.382812 1.5625 20.84375 1.5625 C 17.289062 1.5625 14.019531 0.71875 11.03125 -0.96875 C 8.039062 -2.65625 5.664062 -4.9375 3.90625 -7.8125 C 2.144531 -10.6875 1.265625 -13.804688 1.265625 -17.171875 C 1.265625 -20.546875 2.144531 -23.660156 3.90625 -26.515625 C 5.664062 -29.378906 8.039062 -31.65625 11.03125 -33.34375 C 14.019531 -35.03125 17.289062 -35.875 20.84375 -35.875 Z M 20.84375 -7.8125 C 22.519531 -7.8125 24.078125 -8.234375 25.515625 -9.078125 C 26.953125 -9.921875 28.09375 -11.054688 28.9375 -12.484375 C 29.78125 -13.921875 30.203125 -15.484375 30.203125 -17.171875 C 30.203125 -18.859375 29.78125 -20.414062 28.9375 -21.84375 C 28.09375 -23.269531 26.953125 -24.40625 25.515625 -25.25 C 24.078125 -26.09375 22.519531 -26.515625 20.84375 -26.515625 C 19.15625 -26.515625 17.59375 -26.09375 16.15625 -25.25 C 14.71875 -24.40625 13.578125 -23.269531 12.734375 -21.84375 C 11.890625 -20.414062 11.46875 -18.859375 11.46875 -17.171875 C 11.46875 -15.484375 11.890625 -13.921875 12.734375 -12.484375 C 13.578125 -11.054688 14.71875 -9.921875 16.15625 -9.078125 C 17.59375 -8.234375 19.15625 -7.8125 20.84375 -7.8125 Z M 20.84375 -7.8125 "/></g></g></g><g fill="#ffffff" fill-opacity="1"><g transform="translate(143.854395, 240.766333)"><g><path d="M 36.96875 0.6875 L 26.796875 0.6875 L 13.1875 -18.859375 L 13.1875 0.6875 L 2.984375 0.6875 L 2.984375 -35.03125 L 13.1875 -35.03125 L 26.796875 -15.453125 L 26.796875 -35.03125 L 36.96875 -35.03125 Z M 36.96875 0.6875 "/></g></g></g><g fill="#ffffff" fill-opacity="1"><g transform="translate(175.834324, 240.766333)"><g><path d="M 38.375 -20.578125 C 38.582031 -19.472656 38.6875 -18.335938 38.6875 -17.171875 C 38.6875 -13.765625 37.898438 -10.628906 36.328125 -7.765625 C 34.753906 -4.898438 32.570312 -2.628906 29.78125 -0.953125 C 26.988281 0.722656 23.867188 1.5625 20.421875 1.5625 C 16.941406 1.5625 13.738281 0.71875 10.8125 -0.96875 C 7.882812 -2.65625 5.5625 -4.929688 3.84375 -7.796875 C 2.125 -10.660156 1.265625 -13.785156 1.265625 -17.171875 C 1.265625 -20.546875 2.125 -23.664062 3.84375 -26.53125 C 5.5625 -29.40625 7.882812 -31.679688 10.8125 -33.359375 C 13.738281 -35.035156 16.941406 -35.875 20.421875 -35.875 C 24.085938 -35.875 27.34375 -34.957031 30.1875 -33.125 C 33.03125 -31.300781 35.28125 -28.816406 36.9375 -25.671875 L 27.3125 -23.078125 C 26.476562 -24.148438 25.460938 -24.988281 24.265625 -25.59375 C 23.078125 -26.207031 21.796875 -26.515625 20.421875 -26.515625 C 18.796875 -26.515625 17.296875 -26.097656 15.921875 -25.265625 C 14.554688 -24.429688 13.472656 -23.296875 12.671875 -21.859375 C 11.867188 -20.421875 11.46875 -18.859375 11.46875 -17.171875 C 11.46875 -15.484375 11.867188 -13.921875 12.671875 -12.484375 C 13.472656 -11.054688 14.554688 -9.921875 15.921875 -9.078125 C 17.296875 -8.234375 18.796875 -7.8125 20.421875 -7.8125 C 22.117188 -7.8125 23.660156 -8.269531 25.046875 -9.1875 C 26.429688 -10.101562 27.46875 -11.351562 28.15625 -12.9375 L 18.28125 -12.9375 L 18.28125 -20.578125 Z M 38.375 -20.578125 "/></g></g></g><g fill="#ffffff" fill-opacity="1"><g transform="translate(207.814253, 240.766333)"><g><path d="M 17.015625 -22.65625 C 19.992188 -22.257812 22.585938 -21.71875 24.796875 -21.03125 C 27.015625 -20.34375 28.890625 -19.191406 30.421875 -17.578125 C 31.960938 -15.972656 32.734375 -13.765625 32.734375 -10.953125 C 32.734375 -8.554688 32.164062 -6.414062 31.03125 -4.53125 C 29.894531 -2.65625 28.117188 -1.171875 25.703125 -0.078125 C 23.296875 1.015625 20.257812 1.5625 16.59375 1.5625 C 13.476562 1.5625 10.582031 1.046875 7.90625 0.015625 C 5.226562 -1.003906 3.015625 -2.265625 1.265625 -3.765625 L 5.0625 -11.890625 C 6.78125 -10.554688 8.675781 -9.554688 10.75 -8.890625 C 12.832031 -8.234375 14.78125 -7.875 16.59375 -7.8125 C 18.300781 -7.75 19.710938 -7.875 20.828125 -8.1875 C 21.953125 -8.5 22.515625 -9.097656 22.515625 -9.984375 C 22.515625 -10.472656 22.304688 -10.863281 21.890625 -11.15625 C 21.472656 -11.445312 20.847656 -11.6875 20.015625 -11.875 C 19.179688 -12.0625 17.847656 -12.304688 16.015625 -12.609375 C 11.234375 -13.359375 7.722656 -14.707031 5.484375 -16.65625 C 3.253906 -18.601562 2.140625 -21.140625 2.140625 -24.265625 C 2.140625 -26.429688 2.703125 -28.390625 3.828125 -30.140625 C 4.953125 -31.890625 6.664062 -33.28125 8.96875 -34.3125 C 11.28125 -35.351562 14.132812 -35.875 17.53125 -35.875 C 20.019531 -35.8125 22.5 -35.429688 24.96875 -34.734375 C 27.4375 -34.046875 29.460938 -33.007812 31.046875 -31.625 L 27 -23.984375 C 25.976562 -24.691406 24.566406 -25.289062 22.765625 -25.78125 C 20.960938 -26.269531 18.90625 -26.515625 16.59375 -26.515625 C 15.007812 -26.515625 13.898438 -26.359375 13.265625 -26.046875 C 12.628906 -25.742188 12.3125 -25.335938 12.3125 -24.828125 C 12.3125 -24.410156 12.441406 -24.070312 12.703125 -23.8125 C 12.960938 -23.5625 13.429688 -23.34375 14.109375 -23.15625 C 14.796875 -22.96875 15.765625 -22.800781 17.015625 -22.65625 Z M 17.015625 -22.65625 "/></g></g></g><g fill="#ffffff" fill-opacity="1"><g transform="translate(233.864552, 240.766333)"><g><path d="M 19.125 -35.03125 C 22.144531 -35.03125 24.671875 -34.523438 26.703125 -33.515625 C 28.734375 -32.515625 30.242188 -31.117188 31.234375 -29.328125 C 32.234375 -27.535156 32.734375 -25.460938 32.734375 -23.109375 C 32.734375 -20.773438 32.253906 -18.640625 31.296875 -16.703125 C 30.347656 -14.773438 28.976562 -13.238281 27.1875 -12.09375 C 25.394531 -10.945312 23.28125 -10.375 20.84375 -10.375 L 13.1875 -10.375 L 13.1875 0.6875 L 2.984375 0.6875 L 2.984375 -35.03125 Z M 18.1875 -18.859375 C 19.457031 -18.859375 20.492188 -19.175781 21.296875 -19.8125 C 22.109375 -20.445312 22.515625 -21.40625 22.515625 -22.6875 C 22.515625 -23.9375 22.109375 -24.882812 21.296875 -25.53125 C 20.492188 -26.1875 19.457031 -26.515625 18.1875 -26.515625 L 13.1875 -26.515625 L 13.1875 -18.859375 Z M 18.1875 -18.859375 "/></g></g></g><g fill="#ffffff" fill-opacity="1"><g transform="translate(259.914851, 240.766333)"><g><path d="M 28.328125 0.6875 L 26.0625 -5.25 L 12.21875 -5.25 L 9.953125 0.6875 L -0.421875 0.6875 L 14.359375 -35.03125 L 23.921875 -35.03125 L 38.6875 0.6875 Z M 19.125 -23.109375 L 15.203125 -12.9375 L 23.078125 -12.9375 Z M 19.125 -23.109375 "/></g></g></g><g fill="#ffffff" fill-opacity="1"><g transform="translate(290.209854, 240.766333)"><g><path d="M 21.609375 -7.8125 C 23.210938 -7.8125 24.722656 -8.132812 26.140625 -8.78125 C 27.554688 -9.425781 28.75 -10.3125 29.71875 -11.4375 L 33.578125 -2.75 C 32.015625 -1.414062 30.125 -0.363281 27.90625 0.40625 C 25.695312 1.175781 23.515625 1.5625 21.359375 1.5625 C 17.722656 1.5625 14.363281 0.71875 11.28125 -0.96875 C 8.207031 -2.65625 5.769531 -4.9375 3.96875 -7.8125 C 2.164062 -10.6875 1.265625 -13.804688 1.265625 -17.171875 C 1.265625 -20.546875 2.164062 -23.660156 3.96875 -26.515625 C 5.769531 -29.378906 8.207031 -31.65625 11.28125 -33.34375 C 14.363281 -35.03125 17.722656 -35.875 21.359375 -35.875 C 23.535156 -35.875 25.722656 -35.5 27.921875 -34.75 C 30.128906 -34.007812 32.015625 -32.96875 33.578125 -31.625 L 29.71875 -22.90625 C 28.75 -24.007812 27.554688 -24.882812 26.140625 -25.53125 C 24.722656 -26.1875 23.210938 -26.515625 21.609375 -26.515625 C 19.773438 -26.515625 18.082031 -26.09375 16.53125 -25.25 C 14.988281 -24.40625 13.757812 -23.269531 12.84375 -21.84375 C 11.925781 -20.414062 11.46875 -18.859375 11.46875 -17.171875 C 11.46875 -15.484375 11.925781 -13.921875 12.84375 -12.484375 C 13.757812 -11.054688 14.988281 -9.921875 16.53125 -9.078125 C 18.082031 -8.234375 19.773438 -7.8125 21.609375 -7.8125 Z M 21.609375 -7.8125 "/></g></g></g><g fill="#ffffff" fill-opacity="1"><g transform="translate(317.102621, 240.766333)"><g><path d="M 13.1875 -21.421875 L 24.234375 -21.421875 L 24.234375 -12.9375 L 13.1875 -12.9375 L 13.1875 -8.65625 L 26.796875 -8.65625 L 26.796875 0.6875 L 2.984375 0.6875 L 2.984375 -35.03125 L 26.796875 -35.03125 L 26.796875 -25.671875 L 13.1875 -25.671875 Z M 13.1875 -21.421875 "/></g></g></g><g fill="#ffffff" fill-opacity="1"><g transform="translate(106.957907, 275.827539)"><g/></g></g><g fill="#ffffff" fill-opacity="1"><g transform="translate(112.981344, 275.827539)"><g><path d="M 1.03125 0.28125 C 2.714844 0.28125 3.964844 -0.71875 4.308594 -2.339844 L 5.773438 -9.269531 C 6.179688 -11.113281 5.679688 -11.925781 4.496094 -12.796875 C 3.964844 -13.328125 3.496094 -13.765625 3.746094 -14.890625 L 4.996094 -20.882812 C 5.089844 -21.226562 5.335938 -21.476562 5.648438 -21.476562 C 5.992188 -21.476562 6.148438 -21.226562 6.023438 -20.726562 L 4.808594 -14.921875 L 6.960938 -14.921875 L 8.210938 -20.726562 C 8.585938 -22.414062 7.710938 -23.472656 5.992188 -23.472656 C 4.371094 -23.472656 3.152344 -22.507812 2.777344 -20.882812 L 1.53125 -14.890625 C 1.09375 -12.828125 1.71875 -12.113281 2.621094 -11.363281 C 3.339844 -10.769531 3.777344 -10.332031 3.558594 -9.144531 L 2.121094 -2.402344 C 2.027344 -1.964844 1.777344 -1.71875 1.46875 -1.71875 C 1.09375 -1.71875 0.96875 -2.058594 1.0625 -2.496094 L 2.433594 -8.925781 L 0.21875 -8.925781 L -1.125 -2.496094 C -1.53125 -0.71875 -0.65625 0.28125 1.03125 0.28125 Z M 1.03125 0.28125 "/></g></g></g><g fill="#ffffff" fill-opacity="1"><g transform="translate(122.157292, 275.827539)"><g><path d="M 2.027344 0 L 6.492188 -21.101562 L 8.148438 -21.101562 L 8.585938 -23.222656 L 3.121094 -23.222656 L 2.683594 -21.101562 L 4.277344 -21.101562 L -0.1875 0 Z M 2.027344 0 "/></g></g></g><g fill="#ffffff" fill-opacity="1"><g transform="translate(131.021171, 275.827539)"><g><path d="M 0.71875 0 L 2.746094 -9.707031 L 3.058594 -9.707031 C 3.558594 -9.707031 3.683594 -9.425781 3.558594 -8.832031 L 2.339844 -3.027344 C 2.058594 -1.625 1.902344 -0.4375 1.902344 0 L 4.121094 0 C 4.121094 -0.6875 4.246094 -1.625 4.527344 -2.964844 L 5.679688 -8.335938 C 5.992188 -9.863281 5.898438 -10.519531 5.058594 -10.832031 L 5.058594 -10.863281 C 5.960938 -11.238281 6.492188 -11.988281 6.679688 -12.953125 L 8.304688 -20.539062 C 8.679688 -22.257812 7.898438 -23.222656 6.117188 -23.222656 L 3.402344 -23.222656 L -1.53125 0 Z M 5.214844 -21.257812 L 5.679688 -21.257812 C 6.023438 -21.257812 6.179688 -20.976562 6.085938 -20.445312 L 4.371094 -12.421875 C 4.246094 -11.832031 3.964844 -11.613281 3.589844 -11.613281 L 3.152344 -11.613281 Z M 5.214844 -21.257812 "/></g></g></g><g fill="#ffffff" fill-opacity="1"><g transform="translate(140.290734, 275.827539)"><g><path d="M 1.15625 0.28125 C 2.902344 0.28125 4.121094 -0.84375 4.527344 -2.808594 L 8.273438 -20.414062 C 8.679688 -22.351562 7.867188 -23.472656 6.117188 -23.472656 C 4.371094 -23.472656 3.152344 -22.351562 2.746094 -20.414062 L -1 -2.808594 C -1.40625 -0.875 -0.625 0.28125 1.15625 0.28125 Z M 1.53125 -1.746094 C 1.21875 -1.746094 1.03125 -1.996094 1.1875 -2.558594 L 5.027344 -20.664062 C 5.152344 -21.195312 5.398438 -21.476562 5.710938 -21.476562 C 6.054688 -21.476562 6.210938 -21.195312 6.085938 -20.664062 L 2.246094 -2.558594 C 2.121094 -1.996094 1.871094 -1.746094 1.53125 -1.746094 Z M 1.53125 -1.746094 "/></g></g></g><g fill="#ffffff" fill-opacity="1"><g transform="translate(149.622709, 275.827539)"><g><path d="M 0.59375 0 L 2.433594 -8.800781 L 3.714844 -16.636719 L 3.777344 -16.636719 L 3.433594 -13.328125 L 1.996094 0 L 4.339844 0 L 9.269531 -23.222656 L 7.179688 -23.222656 L 5.304688 -14.390625 L 4.027344 -6.523438 L 3.964844 -6.523438 L 4.308594 -9.863281 L 5.742188 -23.222656 L 3.402344 -23.222656 L -1.53125 0 Z M 0.59375 0 "/></g></g></g><g fill="#ffffff" fill-opacity="1"><g transform="translate(159.422793, 275.827539)"><g><path d="M 1.09375 0.28125 C 2.902344 0.28125 4.089844 -0.84375 4.527344 -2.839844 L 6.273438 -11.113281 L 3.527344 -11.113281 L 3.121094 -9.113281 L 3.746094 -9.113281 L 2.339844 -2.527344 C 2.246094 -1.996094 1.964844 -1.6875 1.5625 -1.6875 C 1.21875 -1.6875 1.03125 -1.996094 1.15625 -2.527344 L 5.027344 -20.695312 C 5.121094 -21.195312 5.398438 -21.476562 5.710938 -21.476562 C 6.085938 -21.476562 6.210938 -21.164062 6.117188 -20.695312 L 4.746094 -14.421875 L 6.960938 -14.421875 L 8.273438 -20.476562 C 8.679688 -22.351562 7.929688 -23.472656 6.148438 -23.472656 C 4.402344 -23.472656 3.152344 -22.351562 2.746094 -20.414062 L -1 -2.808594 C -1.40625 -0.875 -0.65625 0.28125 1.09375 0.28125 Z M 1.09375 0.28125 "/></g></g></g><g fill="#ffffff" fill-opacity="1"><g transform="translate(168.723561, 275.827539)"><g><path d="M 2.714844 0 L 3.121094 -2.027344 L 1.125 -2.027344 L 3.027344 -11.019531 L 4.746094 -11.019531 L 5.183594 -12.984375 L 3.464844 -12.984375 L 5.214844 -21.195312 L 7.179688 -21.195312 L 7.617188 -23.222656 L 3.402344 -23.222656 L -1.53125 0 Z M 2.714844 0 "/></g></g></g><g fill="#ffffff" fill-opacity="1"><g transform="translate(176.682428, 275.827539)"><g><path d="M 0.71875 0 L 2.746094 -9.707031 L 3.058594 -9.707031 C 3.558594 -9.707031 3.683594 -9.425781 3.558594 -8.832031 L 2.339844 -3.027344 C 2.058594 -1.625 1.902344 -0.4375 1.902344 0 L 4.121094 0 C 4.121094 -0.6875 4.246094 -1.625 4.527344 -2.964844 L 5.679688 -8.335938 C 5.992188 -9.863281 5.898438 -10.519531 5.058594 -10.832031 L 5.058594 -10.863281 C 5.960938 -11.238281 6.492188 -11.988281 6.679688 -12.953125 L 8.304688 -20.539062 C 8.679688 -22.257812 7.898438 -23.222656 6.117188 -23.222656 L 3.402344 -23.222656 L -1.53125 0 Z M 5.214844 -21.257812 L 5.679688 -21.257812 C 6.023438 -21.257812 6.179688 -20.976562 6.085938 -20.445312 L 4.371094 -12.421875 C 4.246094 -11.832031 3.964844 -11.613281 3.589844 -11.613281 L 3.152344 -11.613281 Z M 5.214844 -21.257812 "/></g></g></g><g fill="#ffffff" fill-opacity="1"><g transform="translate(185.951987, 275.827539)"><g/></g></g><g fill="#ffffff" fill-opacity="1"><g transform="translate(191.976025, 275.827539)"><g><path d="M 2.714844 0 L 3.121094 -2.027344 L 1.125 -2.027344 L 3.027344 -11.019531 L 4.746094 -11.019531 L 5.183594 -12.984375 L 3.464844 -12.984375 L 5.214844 -21.195312 L 7.179688 -21.195312 L 7.617188 -23.222656 L 3.402344 -23.222656 L -1.53125 0 Z M 2.714844 0 "/></g></g></g><g fill="#ffffff" fill-opacity="1"><g transform="translate(199.934893, 275.827539)"><g><path d="M -0.15625 0 L 2.902344 0 L 9.519531 -23.222656 L 7.304688 -23.222656 L 3.339844 -8.429688 L 2.246094 -3.964844 L 2.183594 -3.964844 L 2.996094 -8.429688 L 5.335938 -23.222656 L 3.089844 -23.222656 Z M -0.15625 0 "/></g></g></g><g fill="#ffffff" fill-opacity="1"><g transform="translate(209.672561, 275.827539)"><g><path d="M 2.714844 0 L 3.121094 -2.027344 L 1.125 -2.027344 L 3.027344 -11.019531 L 4.746094 -11.019531 L 5.183594 -12.984375 L 3.464844 -12.984375 L 5.214844 -21.195312 L 7.179688 -21.195312 L 7.617188 -23.222656 L 3.402344 -23.222656 L -1.53125 0 Z M 2.714844 0 "/></g></g></g><g fill="#ffffff" fill-opacity="1"><g transform="translate(217.631434, 275.827539)"><g><path d="M 0.71875 0 L 2.746094 -9.707031 L 3.058594 -9.707031 C 3.558594 -9.707031 3.683594 -9.425781 3.558594 -8.832031 L 2.339844 -3.027344 C 2.058594 -1.625 1.902344 -0.4375 1.902344 0 L 4.121094 0 C 4.121094 -0.6875 4.246094 -1.625 4.527344 -2.964844 L 5.679688 -8.335938 C 5.992188 -9.863281 5.898438 -10.519531 5.058594 -10.832031 L 5.058594 -10.863281 C 5.960938 -11.238281 6.492188 -11.988281 6.679688 -12.953125 L 8.304688 -20.539062 C 8.679688 -22.257812 7.898438 -23.222656 6.117188 -23.222656 L 3.402344 -23.222656 L -1.53125 0 Z M 5.214844 -21.257812 L 5.679688 -21.257812 C 6.023438 -21.257812 6.179688 -20.976562 6.085938 -20.445312 L 4.371094 -12.421875 C 4.246094 -11.832031 3.964844 -11.613281 3.589844 -11.613281 L 3.152344 -11.613281 Z M 5.214844 -21.257812 "/></g></g></g><g fill="#ffffff" fill-opacity="1"><g transform="translate(226.900999, 275.827539)"><g><path d="M 2.371094 0 L 3.714844 -6.273438 L 9.269531 -23.222656 L 6.960938 -23.222656 L 3.996094 -12.515625 L 3.496094 -10.550781 L 3.433594 -10.550781 L 3.839844 -12.515625 L 5.304688 -23.222656 L 3.089844 -23.222656 L 1.46875 -6.273438 L 0.15625 0 Z M 2.371094 0 "/></g></g></g><g fill="#ffffff" fill-opacity="1"><g transform="translate(236.389021, 275.827539)"><g/></g></g><g fill="#ffffff" fill-opacity="1"><g transform="translate(242.413064, 275.827539)"><g><path d="M 1.21875 0 C 2.996094 0 4.183594 -1.15625 4.589844 -3.152344 L 8.210938 -20.070312 C 8.617188 -22.039062 7.898438 -23.222656 6.117188 -23.222656 L 3.402344 -23.222656 L -1.53125 0 Z M 5.214844 -21.226562 L 5.617188 -21.226562 C 5.992188 -21.226562 6.148438 -20.976562 6.054688 -20.351562 L 2.339844 -2.871094 C 2.183594 -2.277344 1.902344 -1.996094 1.53125 -1.996094 L 1.125 -1.996094 Z M 5.214844 -21.226562 "/></g></g></g><g fill="#ffffff" fill-opacity="1"><g transform="translate(251.776253, 275.827539)"><g><path d="M -1.839844 0 L 0.40625 0 L 1.4375 -3.746094 L 2.996094 -3.746094 L 2.433594 0 L 4.683594 0 L 7.992188 -23.222656 L 4.714844 -23.222656 Z M 3.308594 -5.710938 L 1.964844 -5.710938 L 4.183594 -13.734375 L 5.429688 -18.980469 L 5.492188 -18.980469 L 4.527344 -13.734375 Z M 3.308594 -5.710938 "/></g></g></g><g fill="#ffffff" fill-opacity="1"><g transform="translate(261.607552, 275.827539)"><g><path d="M 2.371094 0 L 3.714844 -6.273438 L 9.269531 -23.222656 L 6.960938 -23.222656 L 3.996094 -12.515625 L 3.496094 -10.550781 L 3.433594 -10.550781 L 3.839844 -12.515625 L 5.304688 -23.222656 L 3.089844 -23.222656 L 1.46875 -6.273438 L 0.15625 0 Z M 2.371094 0 "/></g></g></g></svg>