<?xml version="1.0" encoding="utf-8"?>
<svg version="1.1" id="Layer_1" xmlns="http://www.w3.org/2000/svg" xmlns:xlink="http://www.w3.org/1999/xlink" x="0px" y="0px"
	 viewBox="0 0 20 20" style="enable-background:new 0 0 20 20;" xml:space="preserve">
<style type="text/css">.st0{fill:#E1C670;}</style>
<g>
	<path class="st0" d="M10,1.16l2.19,6.75h7.09l-5.74,4.17l2.19,6.75L10,14.66l-5.74,4.17l2.19-6.75L0.71,7.91h7.09L10,1.16z"/>
	<path class="st0" d="M16.18,19.43L10,14.94l-6.18,4.49l2.36-7.27L0,7.68h7.64L10,0.41l2.36,7.27H20l-6.18,4.49L16.18,19.43z
		 M1.43,8.14l5.3,3.85L4.7,18.22l5.3-3.85l5.3,3.85l-2.02-6.23l5.3-3.85h-6.55L10,1.91L7.98,8.14H1.43z"/>
</g>
</svg>
