<svg id="Layer_1" data-name="Layer 1" xmlns="http://www.w3.org/2000/svg" viewBox="0 0 20 20"><defs><style>.cls-1{fill:#fff;}.cls-2{fill:#e1c670;}</style></defs><path class="cls-1" d="M10,1.1l2.2,6.75h7.09L13.55,12l2.19,6.75L10,14.6,4.26,18.77,6.45,12,.71,7.85H7.8Z" transform="translate(0 -0.41)"/><path class="cls-2" d="M10,14.62h0L4.26,18.79,6.45,12,.71,7.87H7.8L10,1.12l0,6.29" transform="translate(0 -0.41)"/><path class="cls-2" d="M16.18,19.43,10,14.94,3.82,19.43l2.36-7.27L0,7.68H7.64L10,.41l2.36,7.27H20l-6.18,4.49ZM1.43,8.14,6.73,12l-2,6.23L10,14.37l5.3,3.85-2-6.23,5.3-3.85H12L10,1.91,8,8.14Z" transform="translate(0 -0.41)"/></svg>