<svg width="25" height="25" fill="none" xmlns="http://www.w3.org/2000/svg"><path d="m8.387 7.133 2.863-2.876v11.99a1.25 1.25 0 0 0 2.5 0V4.258l2.863 2.876a1.25 1.25 0 0 0 1.774 0 1.249 1.249 0 0 0 0-1.775l-5-5.002a1.25 1.25 0 0 0-.412-.262 1.25 1.25 0 0 0-.95 0 1.25 1.25 0 0 0-.412.262l-5 5.002a1.255 1.255 0 0 0 1.774 1.775Zm15.363 5.364a1.25 1.25 0 0 0-1.25 1.25v7.502a1.25 1.25 0 0 1-1.25 1.25H3.75a1.25 1.25 0 0 1-1.25-1.25v-7.502a1.25 1.25 0 1 0-2.5 0v7.502A3.752 3.752 0 0 0 3.75 25h17.5A3.75 3.75 0 0 0 25 21.25v-7.503a1.25 1.25 0 0 0-1.25-1.25Z" fill="#0097b2"/></svg>