<?xml version="1.0" encoding="utf-8"?>
<!-- Generator: Adobe Illustrator 26.0.1, SVG Export Plug-In . SVG Version: 6.00 Build 0)  -->
<svg version="1.1" id="Layer_1" xmlns="http://www.w3.org/2000/svg" xmlns:xlink="http://www.w3.org/1999/xlink" x="0px" y="0px"
	 viewBox="0 0 20 20" style="enable-background:new 0 0 20 20;" xml:space="preserve">
<style type="text/css">
	.st0{fill:#EDEDEC;}
	.st1{fill:#D70926;}
</style>
<circle class="st0" cx="10" cy="10" r="10"/>
<g>
	<path class="st1" d="M7.93,7C7.84,7,7.75,6.97,7.69,6.89C7.53,6.72,7.28,6.35,7.3,5.85C7.32,5.42,7.55,5.1,7.68,4.94
		c0.18-0.22,0.21-0.46,0.21-0.57c0-0.27-0.13-0.48-0.21-0.57C7.59,3.68,7.63,3.52,7.77,3.44C7.9,3.37,8.09,3.39,8.18,3.51
		C8.3,3.66,8.5,3.96,8.5,4.37c0,0.18-0.04,0.52-0.32,0.86L8.18,5.24C8.08,5.35,7.92,5.57,7.91,5.87c-0.02,0.35,0.16,0.6,0.27,0.72
		c0.1,0.11,0.07,0.27-0.06,0.35C8.06,6.99,7.99,7,7.93,7z"/>
	<path class="st1" d="M9.73,7C9.64,7,9.55,6.96,9.49,6.9C9.33,6.73,9.08,6.35,9.1,5.86C9.12,5.42,9.35,5.1,9.48,4.94
		c0.18-0.22,0.21-0.46,0.21-0.58c0-0.27-0.13-0.48-0.21-0.58C9.39,3.68,9.43,3.52,9.57,3.44C9.7,3.37,9.89,3.39,9.98,3.51
		c0.12,0.15,0.32,0.45,0.32,0.86c0,0.18-0.04,0.52-0.32,0.86L9.97,5.25C9.88,5.35,9.72,5.58,9.71,5.88C9.69,6.23,9.87,6.48,9.97,6.6
		c0.1,0.11,0.07,0.27-0.06,0.35C9.86,6.99,9.8,7,9.73,7z"/>
	<path class="st1" d="M12.13,7c-0.09,0-0.18-0.04-0.24-0.11c-0.16-0.18-0.41-0.55-0.39-1.04c0.02-0.43,0.25-0.76,0.38-0.91
		c0.18-0.22,0.21-0.46,0.21-0.57c0-0.27-0.13-0.48-0.21-0.57c-0.09-0.11-0.06-0.27,0.08-0.35c0.13-0.08,0.32-0.05,0.42,0.07
		c0.12,0.15,0.32,0.45,0.32,0.86c0,0.18-0.04,0.52-0.32,0.86l-0.01,0.01c-0.09,0.11-0.26,0.33-0.27,0.63
		c-0.02,0.35,0.16,0.6,0.27,0.72c0.1,0.11,0.07,0.27-0.06,0.35C12.26,6.99,12.19,7,12.13,7z"/>
	<path class="st1" d="M14.5,10.69V9.57c0-0.09-0.04-0.16-0.1-0.21l0.1-1.46c0.01-0.08-0.02-0.15-0.07-0.21
		C14.37,7.63,14.3,7.6,14.22,7.6H5.78c-0.08,0-0.15,0.03-0.21,0.09C5.52,7.75,5.49,7.82,5.5,7.9l0.1,1.46
		C5.54,9.41,5.5,9.49,5.5,9.57v1.12c0,0.13,0.09,0.23,0.21,0.27l0.11,1.71H5.78c-0.15,0-0.28,0.13-0.28,0.28v1.12
		c0,0.15,0.13,0.28,0.28,0.28h0.15l0.13,1.99c0.01,0.15,0.13,0.26,0.28,0.26h7.31c0.15,0,0.27-0.11,0.28-0.26l0.13-1.99h0.15
		c0.15,0,0.28-0.13,0.28-0.28v-1.12c0-0.15-0.13-0.28-0.28-0.28h-0.04l0.11-1.71C14.41,10.93,14.5,10.82,14.5,10.69z M13.94,13.23
		v0.56H6.06v-0.56H13.94z M10.28,14.35h1.54l-0.11,1.69h-1.42V14.35z M9.72,16.04H8.29l-0.11-1.69h1.54V16.04z M8.07,12.67
		l-0.11-1.69h1.76v1.69H8.07z M10.28,12.67v-1.69h1.76l-0.11,1.69H10.28z M6.06,10.41V9.85h7.87v0.56H6.06z M10.28,9.29V8.16h1.95
		l-0.07,1.12C12.15,9.29,10.28,9.29,10.28,9.29z M9.72,9.29H7.85L7.77,8.16h1.95L9.72,9.29L9.72,9.29z M13.84,9.29h-1.12l0.07-1.12
		h1.13L13.84,9.29z M7.2,8.16l0.07,1.12H6.16L6.08,8.16H7.2z M6.27,10.97h1.12l0.11,1.69H6.38L6.27,10.97z M6.5,14.35h1.12
		l0.11,1.69H6.61L6.5,14.35z M13.39,16.04h-1.12l0.11-1.69h1.12L13.39,16.04z M12.49,12.67l0.11-1.69h1.12l-0.11,1.69H12.49z"/>
</g>
</svg>
